<?xml version="1.0" encoding="utf-8"?>
<!-- Generator: Adobe Illustrator 26.5.0, SVG Export Plug-In . SVG Version: 6.00 Build 0)  -->
<svg version="1.1" id="Layer_1" xmlns="http://www.w3.org/2000/svg" xmlns:xlink="http://www.w3.org/1999/xlink" x="0px" y="0px"
	 width="48px" height="48px" viewBox="0 0 48 48" style="enable-background:new 0 0 48 48;" xml:space="preserve">
<style type="text/css">
	.st0{fill:#00CC00;}
</style>
<path class="st0" d="M41.8,16.8c-3.6,0-7-1.4-9.5-3.9S28.4,7,28.4,3.4c0-0.9-0.7-1.7-1.7-1.7c-0.9,0-1.7,0.7-1.7,1.7
	c0,4.4,1.8,8.8,4.9,11.9c3.2,3.2,7.4,4.9,11.9,4.9c0.9,0,1.7-0.8,1.7-1.7C43.5,17.6,42.7,16.8,41.8,16.8L41.8,16.8z"/>
<path class="st0" d="M41.8,9.7c-1.7,0-3.3-0.7-4.5-1.9C36,6.6,35.4,5,35.4,3.3c0-0.9-0.8-1.7-1.7-1.7S32,2.4,32,3.3
	c0,2.6,1,5.1,2.9,6.9c1.9,1.9,4.3,2.9,6.9,2.9c0.9,0,1.7-0.8,1.7-1.7C43.5,10.5,42.7,9.7,41.8,9.7z"/>
<path class="st0" d="M44.5,3.3c0,1.5-1.2,2.7-2.7,2.7s-2.7-1.2-2.7-2.7s1.2-2.7,2.7-2.7C43.3,0.6,44.5,1.8,44.5,3.3"/>
<path class="st0" d="M8.7,44.1c-0.4,1.1,0.1,2.2,1.2,2.6c0.2,0.1,0.5,0.1,0.7,0.1c0.8,0,1.6-0.5,1.9-1.4l2.7-7.5L12,34.7L8.7,44.1z"
	/>
<path class="st0" d="M27.3,24.1l-3.6-0.5c-0.2,0-0.4-0.1-0.5-0.3c-3-4.4-3.7-4.7-4.5-4.7l-2.9-0.2c-0.6,0-1.1,0-5.5,2.5
	c-0.9,0.5-1.7,1.3-2.2,2.3l-1.9,3.6c-0.4,0.9-0.1,1.9,0.7,2.4c0.2,0.1,0.5,0.2,0.8,0.2c0.6,0,1.3-0.3,1.6-1l1.9-3.6
	c0.2-0.4,0.5-0.7,0.8-0.9c0.1-0.1,0.2-0.1,0.4-0.2l-1.3,5.6c-0.2,1.1,0,2.3,0.9,3.1l5.7,5.7c0,0,0.1,0.1,0.1,0.2l2.5,7.2
	c0.3,0.8,1.1,1.4,1.9,1.4c0.2,0,0.4,0,0.7-0.1c1.1-0.4,1.7-1.6,1.3-2.6L21.7,37c-0.2-0.6-0.6-1.3-1.1-1.8L17.5,32l2.3-7.4
	c0.1,0.2,0.3,0.4,0.4,0.6c0.7,1,1.8,1.7,2.9,1.8l3.6,0.5c1,0.1,1.9-0.5,2-1.5C28.9,25.2,28.3,24.2,27.3,24.1L27.3,24.1z"/>
<path class="st0" d="M18.2,9.6c2.2,0.2,3.7,2.2,3.5,4.3c-0.2,2.2-2.2,3.7-4.3,3.5c-2.2-0.2-3.7-2.2-3.5-4.3
	C14.1,10.9,16,9.4,18.2,9.6"/>
</svg>
