<?xml version="1.0" encoding="utf-8"?>
<!-- Generator: Adobe Illustrator 26.5.0, SVG Export Plug-In . SVG Version: 6.00 Build 0)  -->
<svg version="1.1" id="Layer_1" xmlns="http://www.w3.org/2000/svg" xmlns:xlink="http://www.w3.org/1999/xlink" x="0px" y="0px"
	 width="48px" height="48px" viewBox="0 0 48 48" style="enable-background:new 0 0 48 48;" xml:space="preserve">
<style type="text/css">
	.st0{fill:#FF0000;}
	.st1{fill-rule:evenodd;clip-rule:evenodd;fill:#FF0000;}
</style>
<path class="st0" d="M31.2,32.9L31.2,32.9V7.3c0-4-3.3-7.3-7.3-7.3c-4,0-7.3,3.3-7.3,7.3v25.6v0c-1.2,1.6-1.8,3.5-1.8,5.4
	c0,5,4.1,9.1,9.1,9.1c5,0,9.1-4.1,9.1-9.1C33,36.4,32.4,34.5,31.2,32.9L31.2,32.9z M23.9,43.8c-3,0-5.5-2.5-5.5-5.5
	c0-1.3,0.5-2.6,1.4-3.6c0.3-0.4,0.5-0.9,0.5-1.4c0,0,0-0.2,0-0.2c0-0.1,0-0.1,0-0.2V7.3c0-2,1.6-3.7,3.7-3.7s3.7,1.6,3.7,3.7v25.6
	c0,0.1,0,0.1,0,0.2c0,0,0,0.2,0,0.2c-0.1,0.5,0.1,1,0.5,1.4c0.9,1,1.4,2.3,1.4,3.6C29.4,41.4,26.9,43.8,23.9,43.8L23.9,43.8z"/>
<path class="st0" d="M25.7,35.2V7.3c0-1-0.8-1.8-1.8-1.8s-1.8,0.8-1.8,1.8v27.9c-1.1,0.6-1.8,1.8-1.8,3.1c0,2,1.6,3.7,3.7,3.7
	s3.7-1.6,3.7-3.7C27.5,37,26.8,35.8,25.7,35.2z"/>
<path class="st1" d="M7.1,4.9C6.8,4.9,6.5,5,6.3,5.2C6.1,5.4,6,5.7,6,6c0,0.3,0.1,0.6,0.3,0.8C6.5,6.9,6.8,7,7.1,7h5.3
	c0.3,0,0.6-0.1,0.8-0.3s0.3-0.5,0.3-0.8c0-0.3-0.1-0.6-0.3-0.8c-0.2-0.2-0.5-0.3-0.8-0.3L7.1,4.9z"/>
<path class="st1" d="M7.1,30.3c-0.3,0-0.6,0.1-0.8,0.3C6.1,30.8,6,31,6,31.3c0,0.3,0.1,0.6,0.3,0.8c0.2,0.2,0.5,0.3,0.8,0.3h5.3
	c0.3,0,0.6-0.1,0.8-0.3c0.2-0.2,0.3-0.5,0.3-0.8c0-0.3-0.1-0.6-0.3-0.8c-0.2-0.2-0.5-0.3-0.8-0.3H7.1z"/>
<path class="st1" d="M9.2,17.6c-0.3,0-0.6,0.1-0.8,0.3c-0.2,0.2-0.3,0.5-0.3,0.8c0,0.3,0.1,0.6,0.3,0.8c0.2,0.2,0.5,0.3,0.8,0.3h3.1
	c0.3,0,0.6-0.1,0.8-0.3c0.2-0.2,0.3-0.5,0.3-0.8c0-0.3-0.1-0.6-0.3-0.8c-0.2-0.2-0.5-0.3-0.8-0.3H9.2z"/>
<path class="st1" d="M7.1,13.4c-0.3,0-0.6,0.1-0.8,0.3C6.1,13.9,6,14.1,6,14.4c0,0.3,0.1,0.6,0.3,0.8c0.2,0.2,0.5,0.3,0.8,0.3h5.3
	c0.3,0,0.6-0.1,0.8-0.3c0.2-0.2,0.3-0.5,0.3-0.8c0-0.3-0.1-0.6-0.3-0.8c-0.2-0.2-0.5-0.3-0.8-0.3H7.1z"/>
<path class="st1" d="M9.2,9.1c-0.3,0-0.6,0.1-0.8,0.3c-0.2,0.2-0.3,0.5-0.3,0.8c0,0.3,0.1,0.6,0.3,0.8c0.2,0.2,0.5,0.3,0.8,0.3h3.1
	c0.3,0,0.6-0.1,0.8-0.3c0.2-0.2,0.3-0.5,0.3-0.8c0-0.3-0.1-0.6-0.3-0.8c-0.2-0.2-0.5-0.3-0.8-0.3H9.2z"/>
<path class="st1" d="M9.2,26c-0.3,0-0.6,0.1-0.8,0.3c-0.2,0.2-0.3,0.5-0.3,0.8c0,0.3,0.1,0.6,0.3,0.8c0.2,0.2,0.5,0.3,0.8,0.3h3.1
	c0.3,0,0.6-0.1,0.8-0.3c0.2-0.2,0.3-0.5,0.3-0.8c0-0.3-0.1-0.6-0.3-0.8c-0.2-0.2-0.5-0.3-0.8-0.3H9.2z"/>
<path class="st1" d="M7.1,21.8c-0.3,0-0.6,0.1-0.8,0.3C6.1,22.3,6,22.6,6,22.9c0,0.3,0.1,0.6,0.3,0.8c0.2,0.2,0.5,0.3,0.8,0.3h5.3
	c0.3,0,0.6-0.1,0.8-0.3c0.2-0.2,0.3-0.5,0.3-0.8c0-0.3-0.1-0.6-0.3-0.8c-0.2-0.2-0.5-0.3-0.8-0.3L7.1,21.8z"/>
<path class="st1" d="M42.1,6.7c0.8,1.4,0.6,2.9,0.2,4.3c-1.4,4.7-4.7,5.8,0.6,11.7c-1.3-4.2-0.5-4.4,1.2-8.1
	C45.2,12.2,46,8.3,42.1,6.7L42.1,6.7z"/>
<path class="st1" d="M36.5,1.7c0.8,1.4,0.6,2.9,0.2,4.3c-1.4,4.7-4.7,5.8,0.6,11.7c-1.3-4.2-0.5-4.4,1.2-8.1
	C39.7,7.2,40.4,3.3,36.5,1.7L36.5,1.7z"/>
</svg>
